<?xml version="1.0" encoding="UTF-8"?>
<svg xmlns="http://www.w3.org/2000/svg" viewBox="0 0 406.92 351.95">
  <defs>
    <style>
      .cls-1 {
        fill: #631f2e;
      }

      .cls-2 {
        fill: #772a3b;
      }

      .cls-3 {
        fill: none;
        stroke: #c5465b;
        stroke-miterlimit: 10;
        stroke-width: 6px;
      }

      .cls-4 {
        fill: #6c2434;
      }
    </style>
  </defs>
  <g id="Layer_2">
    <polygon class="cls-4" points="236.57 3 103.54 231.97 170.91 231.97 235.85 118.62 369.19 348.95 403.45 290.4 236.57 3"/>
    <polygon class="cls-2" points="236.57 3 169.63 3 3.45 290.51 268.84 290.51 235.81 231.97 103.54 231.97 236.57 3"/>
    <polygon class="cls-1" points="3.45 290.51 36 348.95 369.19 348.95 235.85 118.62 202.87 176.19 268.84 290.51 3.45 290.51"/>
  </g>
  <g id="Layer_3">
    <polygon class="cls-3" points="169.63 3 236.57 3 403.45 290.4 369.19 348.95 36 348.95 3.45 290.51 169.63 3"/>
    <polyline class="cls-3" points="236.57 3 103.54 231.97 235.81 231.97 202.87 176.19"/>
    <polyline class="cls-3" points="369.19 348.95 235.85 118.62 170.91 231.97"/>
    <polyline class="cls-3" points="3.45 290.51 268.84 290.51 235.81 231.97"/>
  </g>
</svg>